# xmcd CD database file
#
# Track frame offsets:
#	187
#	21082
#	36230
#	45417
#	57680
#	70970
#	84192
#	90660
#	98420
#	118462
#	132205
#	144862
#	165487
#	172630
#	179182
#	184005
#
# Disc length: 2656 seconds
#
# Revision: 3
# Processed by: cddbd v1.5.1PL2 Copyright (c) Steve Scherf et al.
# Submitted via: CDex 1.51
#
DISCID=d00a5e10
DTITLE=萩田光雄 - 巨神 ゴーグ 音楽篇 Vol.2
DYEAR=1994
DGENRE=Soundtrack
TTITLE0=中村祐介・久保田みのり/TWILIGHT
TTITLE1=悠字とドリス
TTITLE2=異星人のテーマ
TTITLE3=異星人との出あい
TTITLE4=やすらぎのテーマ
TTITLE5=悲しみのテーマ
TTITLE6=神々の怒り
TTITLE7=エンディング・テーマ
TTITLE8=中村祐介/CALL MY NAME
TTITLE9=好戦
TTITLE10=ゴーグの怒り
TTITLE11=戦闘のテーマ
TTITLE12=レイディのテーマ
TTITLE13=ミニコレクション コード篇
TTITLE14=ミニコレクション サブタイトル・アイキャッチ篇
TTITLE15=ミニコレクション ブリッジ篇
EXTD=YEAR: 1994
EXTT0=
EXTT1=
EXTT2=
EXTT3=
EXTT4=
EXTT5=
EXTT6=
EXTT7=
EXTT8=
EXTT9=
EXTT10=
EXTT11=
EXTT12=
EXTT13=
EXTT14=
EXTT15=
PLAYORDER=
